<svg width="88.090912" height="30.000000" viewBox="0 0 88.0909 30" fill="none" xmlns="http://www.w3.org/2000/svg" xmlns:xlink="http://www.w3.org/1999/xlink">
	<desc>
			Created with Pixso.
	</desc>
	<defs/>
	<path id="GrowBe" d="M16.2246 11L14.0449 11C13.3066 8.70898 11.5898 7.28516 9.07031 7.28516C5.96484 7.28516 3.47461 9.74023 3.47461 14.2754C3.47461 18.8047 5.96484 21.2598 9.20508 21.2598C12.1641 21.2598 14.2266 19.2852 14.2852 16.1504L9.67969 16.1504L9.67969 14.2754L16.3301 14.2754L16.3301 16.1504C16.3301 20.4688 13.3652 23.2402 9.20508 23.2402C4.57031 23.2402 1.42969 19.7949 1.42969 14.2754C1.42969 8.75 4.59375 5.30469 9.07031 5.30469C12.75 5.30469 15.5801 7.625 16.2246 11ZM21.6792 23L19.6694 23L19.6694 9.91016L21.6147 9.91016L21.6147 11.8848L21.7495 11.8848C22.2299 10.5898 23.5893 9.70508 25.1596 9.70508C25.4585 9.70508 25.9858 9.72266 26.2143 9.74023L26.2143 11.7852C26.0795 11.75 25.5229 11.6504 24.9897 11.6504C23.0795 11.6504 21.6792 12.9453 21.6792 14.7148L21.6792 23ZM39.4421 16.5254C39.4421 20.5801 37.0574 23.2754 33.5124 23.2754C29.9675 23.2754 27.5769 20.5801 27.5769 16.5254C27.5769 12.4297 29.9675 9.74023 33.5124 9.74023C37.0574 9.74023 39.4421 12.4297 39.4421 16.5254ZM47.0124 23L45.032 23L41.0476 9.91016L43.157 9.91016L45.987 19.9297L46.1277 19.9297L48.9226 9.91016L51.0671 9.91016L53.8269 19.9004L53.9675 19.9004L56.7976 9.91016L58.907 9.91016L54.9226 23L52.9421 23L50.0769 12.9453L49.8777 12.9453L47.0124 23ZM29.5925 16.5254C29.5925 19.1504 30.8171 21.4648 33.5124 21.4648C36.2019 21.4648 37.4324 19.1504 37.4324 16.5254C37.4324 13.9004 36.2019 11.5449 33.5124 11.5449C30.8171 11.5449 29.5925 13.9004 29.5925 16.5254Z" fill="#000000" fill-opacity="1.000000" fill-rule="evenodd"/>
	<path id="GrowBe" d="M68.1472 23L61.8425 23L61.8425 5.54492L67.9421 5.54492C71.5925 5.54492 73.2976 7.625 73.2976 10.1797C73.2976 12.4297 71.9675 13.4199 70.4675 13.8301L70.4675 14C72.0671 14.0996 73.9773 15.5996 73.9773 18.3652C73.9773 20.9902 72.2722 23 68.1472 23ZM63.9519 7.41992L63.9519 13.2148L67.8777 13.2148C69.782 13.2148 71.282 12.0254 71.282 10.1797C71.282 8.65039 70.2624 7.41992 67.9421 7.41992L63.9519 7.41992ZM87.8858 19.9648C87.2706 21.9453 85.3311 23.2754 82.671 23.2754C78.8858 23.2754 76.5655 20.5801 76.5655 16.5547C76.5655 12.5352 78.921 9.74023 82.4659 9.74023C85.1905 9.74023 88.0909 11.4102 88.0909 16.2852L88.0909 17.1348L78.587 17.1348C78.6808 19.9414 80.3097 21.4648 82.671 21.4648C84.2472 21.4648 85.4308 20.7852 85.9405 19.4199L87.8858 19.9648ZM82.4659 11.5449C80.1632 11.5449 78.7218 13.3613 78.587 15.4004L86.046 15.4004C86.046 13.1797 84.6456 11.5449 82.4659 11.5449ZM63.9519 15.0547L63.9519 21.125L68.1472 21.125C70.907 21.125 71.9675 19.9004 71.9675 18.3652C71.9675 16.5898 70.532 15.0547 68.2527 15.0547L63.9519 15.0547Z" fill="#F25822" fill-opacity="1.000000" fill-rule="evenodd"/>
</svg>
